<svg id="Layer_1" data-name="Layer 1" xmlns="http://www.w3.org/2000/svg" viewBox="0 0 1113.5 1113.5"><defs><style>.cls-1{fill:none;}.cls-1,.cls-2,.cls-3,.cls-4,.cls-5{stroke:#fff;stroke-miterlimit:10;stroke-width:8px;}.cls-2{fill:#1c723a;}.cls-3{fill:#aed9f3;}.cls-4{fill:#85b59e;}.cls-5{fill:#7eaf96;}.cls-6{fill:#aed9f4;}</style></defs><title>LaFametta</title><path class="cls-1" d="M284,407.94a31.83,31.83,0,0,0-5.08-2.59.46.46,0,0,0-.12-.23.46.46,0,0,1,.12.23A31.81,31.81,0,0,1,284,407.94Z"/><path class="cls-1" d="M277.25,403.7,278.6,405l-1.35-1.32q-.49-.43-.94-.88Q276.76,403.27,277.25,403.7Z"/><path class="cls-1" d="M274.86,401.15a18.13,18.13,0,0,0,1.33,1.53A18.12,18.12,0,0,1,274.86,401.15Z"/><path class="cls-1" d="M284,407.94a20.35,20.35,0,0,0,2.19,1.08A20.33,20.33,0,0,1,284,407.94Z"/><path class="cls-1" d="M302.14,391.74l-4,13h0Z"/><path class="cls-1" d="M879.48,433.94c.68.22,1.36.45,2,.71C880.84,434.39,880.16,434.16,879.48,433.94Z"/><path class="cls-1" d="M863,428.61c1.56.62,3.13,1.21,4.7,1.8C866.09,429.82,864.52,429.23,863,428.61Z"/><path class="cls-1" d="M873.93,432.44l-2.8-.7-1.06-.4,1.06.4Z"/><path class="cls-2" d="M556.75,4C251.47,4,4,251.47,4,556.75S251.47,1109.5,556.75,1109.5,1109.5,862,1109.5,556.75,862,4,556.75,4ZM855.56,683.12c-30.92,5.27-61.77,11-92.62,16.64-31.83,5.84-63.64,11.85-95.47,17.69-24.53,4.5-49.09,8.79-73.62,13.26-26.63,4.86-53.24,9.88-79.87,14.72-28.43,5.17-56.9,10.14-85.33,15.32-28.27,5.16-56.49,10.55-84.76,15.7-30.22,5.51-60.46,10.83-90.69,16.28-8.13,1.46-16.26,2.91-24.32,4.68-3.17.7-4.82-.23-6.36-2.92C210,772.69,197.18,751.1,185,729.14c-6.71-12.1-10.57-25.52-15.65-38.37q-19.5-49.29-38.55-98.75c-10.56-27.27-20.89-54.63-31.44-81.9-11-28.39-22.11-56.72-33.18-85.08-2.63-6.74-5.21-13.5-7.9-20.21-.73-1.81-1.23-3.2,1.54-3.17.32,0,.78,0,1-.17,7.79-8.41,19.06-7.49,28.8-10.26C107.86,386,126.49,382,145,377.54c9.85-2.4,19.59-5.67,29.58-7A178.66,178.66,0,0,0,194.13,367c6.21-1.52,7.58-3.51,5-9.29-1.86-4.09-.88-5.68,3.21-6.33,1.94-.31,3.83-.93,5.74-1.38,8.23-1.93,8.23-1.93,12.09,5.81,4.08,8.19,4.09,8.21,12.8,5.26,6.86-2.32,13.72-4.67,20.54-7.09,2-.72,3.17-1.21,4.16,1.7,4.52,13.27,9.51,26.38,14.11,39.62a22.16,22.16,0,0,0,1.57,3.53,18.55,18.55,0,0,0,1.55,2.33,18.12,18.12,0,0,0,1.33,1.53l.13.14q.45.45.94.88L278.6,405a.43.43,0,0,1,.36.34,31.83,31.83,0,0,1,5.08,2.59,20.33,20.33,0,0,0,2.19,1.08,8.76,8.76,0,0,0,4.91.64l7-4.94,4-13c-2.56-10-5.07-20-7.71-29.93-4.13-15.55-8.47-31-12.45-46.63-1.22-4.78,2-8.9,3.38-13.23,2.54-8.18,6-16.06,8.69-24.19,1-3,2.39-3.84,5.51-4.08,11.78-.91,23.62-1.17,35.36-2.78,5-.69,10.17-.41,15.28-.94,11.45-1.2,23.12-.68,34.48-2.34,16.94-2.47,34-2.82,51-4.47,16-1.56,32.16-2.18,48.23-3.36,15-1.1,30-2.4,44.95-3.6a43.53,43.53,0,0,1,5-.3c13.27.46,26.43-1.64,39.6-2.52,14.5-1,29.06-2.09,43.55-3.62,3.28-.35,4.29,1.14,5.11,3.69Q636.67,298.7,651.34,344c8.84,27.18,17.82,54.32,26.68,81.49,2.55,7.81,4.88,15.7,7.32,23.54.72,2.32,1.93,3.53,4.67,4.22,26.84,6.76,53.59,13.85,80.4,20.73,5,1.29,7.71,5.53,11.39,8.47,3.89,3.1,7.28,6.83,11,10.15a9,9,0,0,1,2.48,4.12q14.59,41.93,29.33,83.81,17,48.42,34,96.82C859.8,680.75,860.5,682.27,855.56,683.12Zm145.77-132.57c11.12,15.68,19.69,32.88,29.44,49.38,8.07,13.65,15.78,27.52,23.61,41.32,2.29,4-.2,12.45-3.62,15.58-8.6,7.86-19.38,9.08-30.11,10.9-24.43,4.15-48.83,8.5-73.25,12.75-11.72,2-23.46,4-35.17,6.1-2.35.42-3.4-.52-4-2.51q-11-35.27-22.07-70.54c-5-16-10.14-31.91-15.17-47.88-8.73-27.73-17.51-55.45-26-83.25-1.76-5.72-6.06-9.4-9.49-13.77-5-6.41-10.3-12.61-15.71-18.68-1.81-2-1.52-2.82.31-4.65,10.14-10.13,23.66-13.38,36.38-18.25a5,5,0,0,1,3.83.46q1.34.57,2.7,1.1c1.56.62,3.13,1.21,4.7,1.8l2.42.92,1.06.4,2.8.7,2.44.62c1,.27,2.08.56,3.11.89.68.22,1.36.45,2,.71a24.54,24.54,0,0,1,5.75,3c4.73.71,9.07-1.3,13.46-2.36a5.4,5.4,0,0,1,5.69,1.41c12.69,11.75,25.64,23.22,38,35.33,9.51,9.33,15.89,21.18,23.71,31.88C979.35,519.35,990.29,535,1001.33,550.55Z"/><path class="cls-3" d="M906.58,436.73a5.4,5.4,0,0,0-5.69-1.41c-4.4,1.05-8.73,3.07-13.46,2.36-5.48-1.7-11.2-2.73-16.12-6l-1.06-.4-2.42-.92c-1.57-.59-3.14-1.18-4.7-1.8q-1.36-.54-2.7-1.1a5,5,0,0,0-3.83-.46c-12.73,4.87-26.24,8.12-36.38,18.25-1.83,1.83-2.12,2.61-.31,4.65,5.41,6.07,10.7,12.27,15.71,18.68,3.42,4.38,7.73,8,9.49,13.77,8.54,27.79,17.32,55.51,26,83.25,5,16,10.15,31.91,15.17,47.88q11.08,35.26,22.07,70.54c.62,2,1.67,2.94,4,2.51,11.71-2.11,23.44-4.06,35.17-6.1,24.42-4.25,48.81-8.59,73.25-12.75,10.72-1.82,21.51-3,30.11-10.9,3.42-3.13,5.9-11.54,3.62-15.58-7.83-13.8-15.54-27.67-23.61-41.32-9.75-16.5-18.32-33.7-29.44-49.38s-22-31.2-33.24-46.6c-7.82-10.7-14.2-22.55-23.71-31.88C932.22,460,919.26,448.48,906.58,436.73Z"/><path class="cls-4" d="M291.14,409.66a8.76,8.76,0,0,1-4.91-.64,20.35,20.35,0,0,1-2.19-1.08,31.81,31.81,0,0,0-5.08-2.59C282.43,408.47,285.72,412.08,291.14,409.66Z"/><path class="cls-5" d="M302.14,391.74l-4,13C301.88,401.14,301.6,396.31,302.14,391.74Z"/><path class="cls-4" d="M278.6,405l-1.35-1.32C277.46,404.38,277.49,405.26,278.6,405Z"/><path class="cls-6" d="M859.08,678.43q-17.11-48.37-34-96.82-14.68-41.9-29.33-83.81a9,9,0,0,0-2.48-4.12c-3.73-3.32-7.11-7-11-10.15-3.69-2.94-6.36-7.18-11.39-8.47-26.81-6.88-53.56-14-80.4-20.73-2.74-.69-3.95-1.9-4.67-4.22-2.44-7.85-4.77-15.73-7.32-23.54-8.86-27.18-17.83-54.31-26.68-81.49q-14.72-45.23-29.27-90.52c-.82-2.55-1.82-4-5.11-3.69-14.49,1.52-29.05,2.64-43.55,3.62-13.17.88-26.32,3-39.6,2.52a43.53,43.53,0,0,0-5,.3c-15,1.2-30,2.5-44.95,3.6-16.07,1.18-32.2,1.81-48.23,3.36-17,1.65-34.05,2-51,4.47-11.36,1.66-23,1.14-34.48,2.34-5.12.54-10.25.25-15.28.94-11.74,1.61-23.57,1.87-35.36,2.78-3.12.24-4.51,1-5.51,4.08-2.69,8.14-6.15,16-8.69,24.19-1.34,4.33-4.6,8.46-3.38,13.23,4,15.59,8.33,31.08,12.45,46.63,2.64,10,5.14,20,7.71,29.93a19.42,19.42,0,0,1-3.94,12.34l-2.87,3.63-4.18,1.95c-5.42,2.42-8.72-1.19-12.18-4.3a.43.43,0,0,0-.36-.34c-1.11.24-1.14-.64-1.35-1.32q-.49-.43-.94-.88l-.13-.14a18.13,18.13,0,0,1-1.33-1.53,18.55,18.55,0,0,1-1.55-2.33,22.16,22.16,0,0,1-1.57-3.53c-4.6-13.24-9.6-26.35-14.11-39.62-1-2.91-2.14-2.41-4.16-1.7-6.83,2.42-13.68,4.77-20.54,7.09-8.71,2.95-8.71,2.93-12.8-5.26-3.86-7.74-3.86-7.74-12.09-5.81-1.92.45-3.81,1.07-5.74,1.38-4.09.65-5.07,2.24-3.21,6.33,2.63,5.78,1.26,7.77-5,9.29a178.66,178.66,0,0,1-19.58,3.58c-10,1.3-19.73,4.56-29.58,7-18.49,4.51-37.12,8.49-55.41,13.69-9.75,2.77-21,1.85-28.8,10.26-.18.19-.63.18-1,.17-2.78,0-2.27,1.36-1.54,3.17,2.7,6.71,5.28,13.47,7.9,20.21,11.06,28.36,22.19,56.69,33.18,85.08,10.55,27.27,20.88,54.63,31.44,81.9q19.14,49.43,38.55,98.75c5.08,12.85,8.94,26.27,15.65,38.37,12.18,22,25,43.55,37.51,65.35,1.54,2.7,3.19,3.62,6.36,2.92,8.06-1.77,16.2-3.21,24.32-4.68,30.23-5.44,60.47-10.77,90.69-16.28,28.27-5.15,56.49-10.55,84.76-15.7,28.43-5.19,56.9-10.16,85.33-15.32,26.64-4.84,53.24-9.86,79.87-14.72,24.53-4.47,49.09-8.76,73.62-13.26,31.83-5.84,63.64-11.84,95.47-17.69,30.85-5.66,61.7-11.37,92.62-16.64C861,683.4,860.29,681.87,859.08,678.43Z"/><path class="cls-1" d="M314.82,402.81"/></svg>