<svg id="Layer_1" data-name="Layer 1" xmlns="http://www.w3.org/2000/svg" viewBox="0 0 2391.51 1113.5"><defs><style>.cls-1,.cls-5{fill:none;}.cls-2,.cls-8{fill:#85b59e;}.cls-3,.cls-9{fill:#7eaf96;}.cls-4{fill:#aed9f4;}.cls-5,.cls-6,.cls-7,.cls-8,.cls-9{stroke:#fff;stroke-miterlimit:10;stroke-width:8px;}.cls-10,.cls-6{fill:#1c723a;}.cls-7{fill:#aed9f3;}.no-kill-area{fill:#ffde17;}</style></defs><title>lago</title><path class="cls-1" d="M1929.3,561.59c-1-2.82-2.13-2.33-4.13-1.63q-6.24,2.22-12.51,4.35v1.29q6.51-2.23,13-4.52C1927.34,560.5,1928.41,560.06,1929.3,561.59Z" transform="translate(0 0)"/><path class="cls-1" d="M1947,608.27a18.14,18.14,0,0,0,1.32,1.53l.13.14c.24.24.49.48.75.71a5.28,5.28,0,0,1-.31-.95l1.35,1.32-1.35-1.32q-.49-.43-.94-.88l-.13-.14a18.13,18.13,0,0,1-1.33-1.53,18.56,18.56,0,0,1-1.55-2.33c-.21-.38-.4-.79-.59-1.19a21.3,21.3,0,0,0,1.09,2.31A18.55,18.55,0,0,0,1947,608.27Z" transform="translate(0 0)"/><path class="cls-1" d="M1949.46,610.9c.19.67.26,1.47,1.33,1.24a.43.43,0,0,1,.36.34c3.47,3.11,6.76,6.72,12.18,4.3l4.18-1.95,2.88-3.62a19.42,19.42,0,0,0,3.94-12.34c-2.56-10-5.07-20-7.71-29.93-4.13-15.55-8.47-31-12.45-46.63-1.22-4.78,2-8.9,3.38-13.23,2.54-8.18,6-16.06,8.69-24.19,1-3,2.39-3.84,5.51-4.08,11.78-.91,23.62-1.17,35.36-2.78,5-.69,10.17-.41,15.28-.94,11.45-1.2,23.12-.68,34.48-2.34,16.94-2.47,34-2.82,51-4.47,16-1.56,32.16-2.18,48.23-3.36,15-1.1,30-2.4,44.95-3.6a43.53,43.53,0,0,1,5-.3c13.27.46,26.43-1.64,39.59-2.52,14.5-1,29.06-2.09,43.55-3.62,2.43-.26,3.6.49,4.39,1.93-.79-2.15-1.89-3.37-4.88-3.05-14.49,1.52-29.05,2.64-43.55,3.62-13.17.88-26.32,3-39.6,2.52a43.53,43.53,0,0,0-5,.3c-15,1.2-30,2.5-44.95,3.6-16.07,1.18-32.2,1.81-48.23,3.36-17,1.65-34.05,2-51,4.47-11.36,1.66-23,1.14-34.48,2.34-5.12.54-10.25.25-15.28.94-11.74,1.61-23.57,1.87-35.36,2.78-3.12.24-4.51,1-5.51,4.08-2.69,8.14-6.15,16-8.69,24.19-1.34,4.33-4.6,8.46-3.38,13.23,4,15.59,8.33,31.08,12.45,46.63,2.64,10,5.14,20,7.71,29.93-.54,4.57-.26,9.4-4,13l4-13-4,13-7,4.94c-5.42,2.42-8.72-1.19-12.18-4.3a21.87,21.87,0,0,1,3.83,1.88,21.87,21.87,0,0,0-3.83-1.88.43.43,0,0,0-.36-.34A1,1,0,0,1,1949.46,610.9Z" transform="translate(0 0)"/><path class="cls-1" d="M2357.67,656.5c.74,2.06,2,3.18,4.53,3.83q12.74,3.21,25.46,6.5h3.85q-14.9-3.85-29.81-7.63A5.75,5.75,0,0,1,2357.67,656.5Z" transform="translate(0 0)"/><path class="cls-2" d="M1962.84,615.66a8.76,8.76,0,0,1-4.91-.64,20.35,20.35,0,0,1-2.19-1.08l-1.25-.71a21.87,21.87,0,0,0-3.83-1.88C1954.12,614.47,1957.41,618.08,1962.84,615.66Z" transform="translate(0 0)"/><path class="cls-3" d="M1973.83,597.74l-4,13C1973.57,607.14,1973.29,602.31,1973.83,597.74Z" transform="translate(0 0)"/><path class="cls-2" d="M1949.25,610.65l.19.18,0,.08a1,1,0,0,0,.83.12l-1.35-1.32A5.28,5.28,0,0,0,1949.25,610.65Z" transform="translate(0 0)"/><path class="cls-4" d="M2357.67,656.5c0-.13-.1-.25-.14-.39-2.44-7.85-4.77-15.73-7.32-23.54-8.86-27.18-17.83-54.31-26.68-81.49q-14.72-45.23-29.27-90.52a10.26,10.26,0,0,0-.72-1.76c-.78-1.43-2-2.18-4.39-1.93-14.49,1.52-29.05,2.64-43.55,3.62-13.17.88-26.32,3-39.59,2.52a43.53,43.53,0,0,0-5,.3c-15,1.2-30,2.5-44.95,3.6-16.07,1.18-32.2,1.81-48.23,3.36-17,1.65-34.05,2-51,4.47-11.36,1.66-23,1.14-34.48,2.34-5.12.54-10.25.25-15.28.94-11.74,1.61-23.57,1.87-35.36,2.78-3.12.24-4.51,1-5.51,4.08-2.69,8.14-6.15,16-8.69,24.19-1.34,4.33-4.6,8.46-3.38,13.23,4,15.59,8.33,31.08,12.45,46.63,2.64,10,5.14,20,7.71,29.93a19.42,19.42,0,0,1-3.94,12.34l-2.87,3.63-4.18,1.95c-5.42,2.42-8.72-1.19-12.18-4.3a.43.43,0,0,0-.36-.34c-1.07.23-1.14-.57-1.33-1.24l0-.08-.19-.18c-.26-.23-.51-.47-.75-.71l-.13-.14a18.14,18.14,0,0,1-1.32-1.53,18.55,18.55,0,0,1-1.55-2.33,21.3,21.3,0,0,1-1.09-2.31c-.16-.4-.33-.8-.48-1.22-4.6-13.24-9.6-26.35-14.11-39.62a6.7,6.7,0,0,0-.52-1.2c-.88-1.53-2-1.09-3.63-.5q-6.49,2.3-13,4.52v89.22a12,12,0,0,0,12,12h463q-12.72-3.28-25.46-6.5C2359.62,659.68,2358.4,658.56,2357.67,656.5Z" transform="translate(0 0)"/><path class="cls-1" d="M131.29,593.14c-10.56-27.27-20.89-54.63-31.44-81.9-11-28.39-22.11-56.72-33.18-85.08-2.63-6.74-5.21-13.5-7.9-20.21-.73-1.81-1.23-3.2,1.54-3.17.32,0,.78,0,1-.17,7.79-8.41,19.06-7.49,28.8-10.26,18.29-5.2,36.92-9.18,55.41-13.69,9.85-2.4,19.59-5.67,29.58-7a178.66,178.66,0,0,0,19.58-3.58c6.21-1.52,7.58-3.51,5-9.29-1.86-4.09-.88-5.68,3.21-6.33,1.94-.31,3.83-.93,5.74-1.38,8.23-1.93,8.23-1.93,12.09,5.81,4.08,8.19,4.09,8.21,12.8,5.26,6.86-2.32,13.72-4.67,20.54-7.09,1.67-.59,2.75-1,3.63.5-1-2.82-2.13-2.33-4.13-1.62-6.83,2.42-13.68,4.77-20.54,7.09-8.71,2.95-8.71,2.93-12.8-5.26-3.86-7.74-3.86-7.74-12.09-5.81-1.92.45-3.81,1.07-5.74,1.38-4.09.65-5.07,2.24-3.21,6.33,2.63,5.78,1.26,7.77-5,9.29a178.66,178.66,0,0,1-19.58,3.58c-10,1.3-19.73,4.56-29.58,7C126.49,382,107.86,386,89.57,391.22c-9.75,2.77-21,1.85-28.8,10.26-.18.19-.63.18-1,.17-2.78,0-2.27,1.36-1.54,3.17,2.7,6.71,5.28,13.47,7.9,20.21,11.06,28.36,22.19,56.69,33.18,85.08,10.55,27.27,20.88,54.63,31.44,81.9q19.14,49.43,38.55,98.75c3.9,9.87,7.09,20.07,11.4,29.76-4.06-9.35-7.15-19.15-10.9-28.63Q150.34,642.61,131.29,593.14Z" transform="translate(0 0)"/><path class="cls-1" d="M533.82,255.88a43.53,43.53,0,0,0-5,.3c-14.38,1.15-28.75,2.39-43.14,3.46l49.45-3.73Z" transform="translate(0 0)"/><path class="cls-1" d="M334.91,270.89c-.79.11-1.57.2-2.36.29l11.58-.87A89.25,89.25,0,0,0,334.91,270.89Z" transform="translate(0 0)"/><path class="cls-1" d="M435.66,263.14c-14.87,1.44-29.81,1.89-44.67,3.64l92.59-7C467.62,261,451.6,261.59,435.66,263.14Z" transform="translate(0 0)"/><path class="cls-1" d="M275.36,402.27a18.13,18.13,0,0,0,1.33,1.53l.13.14c.24.24.49.48.75.71a5.28,5.28,0,0,1-.31-.95q-.49-.43-.94-.88l-.13-.14a18.13,18.13,0,0,1-1.33-1.53,18.55,18.55,0,0,1-1.55-2.33c-.21-.38-.4-.79-.59-1.19a21.29,21.29,0,0,0,1.09,2.31A18.55,18.55,0,0,0,275.36,402.27Z" transform="translate(0 0)"/><path class="cls-1" d="M294.54,278.88c.79-2.39,1.83-3.39,3.75-3.83l1.27-1.38c-3.12.24-4.51,1-5.51,4.08q-.51,1.54-1,3.07l1.41-1.53Z" transform="translate(0 0)"/><path class="cls-1" d="M621.84,252.79a6.06,6.06,0,0,0-1.07-1.94l.3.92A4.16,4.16,0,0,1,621.84,252.79Z" transform="translate(0 0)"/><path class="cls-1" d="M617,249.74l3.77,1.07C619.95,250,618.83,249.54,617,249.74Z" transform="translate(0 0)"/><path class="cls-1" d="M900.88,435.33a8.69,8.69,0,0,1,1.7-.25,8.34,8.34,0,0,0-1.86.25c-3.8.91-7.56,2.54-11.57,2.5C893.22,437.92,897,436.25,900.88,435.33Z" transform="translate(0 0)"/><path class="cls-1" d="M277.77,404.9c.19.67.26,1.47,1.33,1.24a.43.43,0,0,1,.36.34c3.47,3.11,6.76,6.72,12.18,4.3l4.18-1.95,2.88-3.62a19.42,19.42,0,0,0,3.94-12.34l-1.32-4.36.83,3.23c-.54,4.57-.26,9.4-4,13h0l-7,4.94c-5.42,2.42-8.72-1.19-12.18-4.3a.43.43,0,0,0-.36-.34A1,1,0,0,1,277.77,404.9Z" transform="translate(0 0)"/><path class="cls-1" d="M690.5,454.33c26.84,6.76,53.59,13.85,80.4,20.73,5,1.29,7.71,5.53,11.39,8.47,3.89,3.1,7.28,6.83,11,10.15a7.42,7.42,0,0,1,1.72,2.26,8.19,8.19,0,0,0-2.21-3.39c-3.73-3.32-7.11-7-11-10.15-3.69-2.94-6.36-7.18-11.39-8.47-26.81-6.88-53.56-14-80.4-20.73a5.75,5.75,0,0,1-4-2.7C686.71,452.56,687.93,453.68,690.5,454.33Z" transform="translate(0 0)"/><path class="cls-1" d="M908.39,684.06q-11-35.27-22.07-70.54c-5-16-10.14-31.91-15.17-47.88-8.73-27.73-17.51-55.45-26-83.25-1.76-5.72-6.06-9.4-9.49-13.77-5-6.41-10.3-12.61-15.71-18.68-1.81-2-1.52-2.82.31-4.65,10.14-10.13,23.66-13.38,36.38-18.25a3.35,3.35,0,0,1,1.28-.22,3.39,3.39,0,0,0-1.45.22c-12.73,4.87-26.24,8.12-36.38,18.25-1.83,1.83-2.12,2.61-.31,4.65,5.41,6.07,10.7,12.27,15.71,18.68,3.42,4.38,7.73,8,9.49,13.77,8.54,27.79,17.32,55.51,26,83.25,5,16,10.15,31.91,15.17,47.88q11.08,35.26,22.07,70.54c.55,1.75,1.43,2.69,3.24,2.6C909.78,686.69,908.93,685.76,908.39,684.06Z" transform="translate(0 0)"/><path class="cls-1" d="M887.12,437.59a24.68,24.68,0,0,0-5.61-2.95c-.67-.25-1.35-.49-2-.71-1-.33-2.06-.62-3.11-.89l-2.44-.62-2.51-.63C876.22,434.9,881.78,436,887.12,437.59Z" transform="translate(0 0)"/><path class="cls-5" d="M282.79,407.23a21.87,21.87,0,0,0-3.83-1.88.46.46,0,0,0-.12-.23.46.46,0,0,1,.12.23A21.87,21.87,0,0,1,282.79,407.23Z" transform="translate(0 0)"/><path class="cls-5" d="M278.6,405l-1.35-1.32q-.49-.43-.94-.88.45.45.94.88Z" transform="translate(0 0)"/><path class="cls-5" d="M302.14,391.74l-4,13h0Z" transform="translate(0 0)"/><path class="cls-5" d="M873.93,432.44l-2.51-.63h0Z" transform="translate(0 0)"/><path class="cls-6" d="M556.75,4C251.47,4,4,251.47,4,556.75S251.47,1109.5,556.75,1109.5,1109.5,862,1109.5,556.75,862,4,556.75,4Zm299.3,680.24c-30.92,5.27-61.77,11-92.62,16.64-31.83,5.84-63.64,11.85-95.47,17.69-24.53,4.5-49.09,8.79-73.62,13.26-26.63,4.86-53.24,9.88-79.87,14.72-28.43,5.17-56.9,10.14-85.33,15.32-28.27,5.16-56.49,10.55-84.76,15.7-30.22,5.51-60.46,10.83-90.69,16.28-8.13,1.46-16.26,2.91-24.32,4.68-3.17.7-4.82-.23-6.36-2.92-12.48-21.8-25.33-43.39-37.51-65.35-1.76-3.16-3.31-6.42-4.75-9.73-4.31-9.69-7.5-19.89-11.4-29.76q-19.5-49.29-38.55-98.75c-10.56-27.27-20.89-54.63-31.44-81.9-11-28.39-22.11-56.72-33.18-85.08-2.63-6.74-5.21-13.5-7.9-20.21-.73-1.81-1.23-3.2,1.54-3.17.32,0,.78,0,1-.17,7.79-8.41,19.06-7.49,28.8-10.26C107.86,386,126.49,382,145,377.54c9.85-2.4,19.59-5.67,29.58-7A178.66,178.66,0,0,0,194.13,367c6.21-1.52,7.58-3.51,5-9.29-1.86-4.09-.88-5.68,3.21-6.33,1.94-.31,3.83-.93,5.74-1.38,8.23-1.93,8.23-1.93,12.09,5.81,4.08,8.19,4.09,8.21,12.8,5.26,6.86-2.32,13.72-4.67,20.54-7.09,2-.71,3.15-1.2,4.13,1.62a6.7,6.7,0,0,1,.52,1.2c4.52,13.27,9.51,26.38,14.11,39.62.15.42.31.82.48,1.22s.38.81.59,1.19a18.55,18.55,0,0,0,1.55,2.33,18.13,18.13,0,0,0,1.33,1.53l.13.14q.45.45.94.88L278.6,405a.43.43,0,0,1,.36.34,21.87,21.87,0,0,1,3.83,1.88l1.25.71a20.35,20.35,0,0,0,2.19,1.08,8.76,8.76,0,0,0,4.91.64l7-4.94,4-13-.83-3.23L279,314.83l12.18-32,1.85-2q.54-1.53,1-3.07c1-3,2.39-3.84,5.51-4.08l33-2.49c.79-.1,1.58-.18,2.36-.29a89.25,89.25,0,0,1,9.22-.58L391,266.77c14.86-1.75,29.8-2.19,44.67-3.64,15.93-1.55,32-2.18,47.92-3.34l2.12-.16c14.38-1.07,28.76-2.31,43.14-3.46a43.53,43.53,0,0,1,5-.3l1.34,0L617,249.74c1.87-.2,3,.22,3.77,1.07h0v0a6.06,6.06,0,0,1,1.07,1.94,10.27,10.27,0,0,1,.72,1.76q14.61,45.27,29.27,90.52c8.84,27.18,17.82,54.32,26.68,81.49,2.55,7.81,4.88,15.7,7.32,23.54,0,.14.09.26.14.39a5.75,5.75,0,0,0,4,2.7c26.84,6.76,53.59,13.85,80.4,20.73,5,1.29,7.71,5.53,11.39,8.47,3.89,3.1,7.28,6.83,11,10.15a8.19,8.19,0,0,1,2.21,3.39,15,15,0,0,1,.77,1.86q14.59,41.93,29.33,83.81,17,48.42,34,96.82C860.29,681.87,861,683.4,856.05,684.24Zm164.77-16.51c-24.43,4.15-48.83,8.5-73.25,12.75-11.72,2-23.46,4-35.17,6.1a5.69,5.69,0,0,1-.94.09c-1.81.09-2.69-.85-3.24-2.6q-11-35.27-22.07-70.54c-5-16-10.14-31.91-15.17-47.88-8.73-27.73-17.51-55.45-26-83.25-1.76-5.72-6.06-9.4-9.49-13.77-5-6.41-10.3-12.61-15.71-18.68-1.81-2-1.52-2.82.31-4.65,10.14-10.13,23.66-13.38,36.38-18.25a3.39,3.39,0,0,1,1.45-.22,7,7,0,0,1,2.54.68q1.34.57,2.7,1.1c1.56.62,3.13,1.21,4.7,1.8l2.42.92,1.06.4.12.07,2.51.63,2.44.62c1,.27,2.08.56,3.11.89.68.22,1.36.45,2,.71a24.68,24.68,0,0,1,5.61,2.95l.3.09a13.46,13.46,0,0,0,1.73.15c4,0,7.77-1.59,11.57-2.5a8.34,8.34,0,0,1,1.86-.25,5.19,5.19,0,0,1,4,1.66c12.69,11.75,25.64,23.22,38,35.33,9.51,9.33,15.89,21.18,23.71,31.88,11.26,15.4,22.2,31,33.24,46.6s19.69,32.88,29.44,49.38c8.07,13.65,15.78,27.52,23.61,41.32,2.29,4-.2,12.45-3.62,15.58C1042.33,664.68,1031.55,665.91,1020.83,667.73Z" transform="translate(0 0)"/><path class="cls-7" d="M947.41,680.47c24.42-4.25,48.81-8.59,73.25-12.75,10.72-1.82,21.51-3,30.11-10.9,3.42-3.13,5.9-11.54,3.62-15.58-7.83-13.8-15.54-27.67-23.61-41.32-9.75-16.5-18.32-33.7-29.44-49.38s-22-31.2-33.24-46.6c-7.82-10.7-14.2-22.55-23.71-31.88-12.34-12.1-25.29-23.58-38-35.33a5.22,5.22,0,0,0-3.83-1.66,8.69,8.69,0,0,0-1.7.25c-3.86.92-7.66,2.59-11.74,2.5a13.53,13.53,0,0,1-1.89-.15l-.13-.09c-5.34-1.64-10.9-2.69-15.7-5.79l-.29-.07-1.06-.4-2.42-.92c-1.57-.59-3.14-1.18-4.7-1.8q-1.36-.54-2.7-1.1a7.46,7.46,0,0,0-2.38-.68,3.35,3.35,0,0,0-1.28.22c-12.73,4.87-26.24,8.12-36.38,18.25-1.83,1.83-2.12,2.61-.31,4.65,5.41,6.07,10.7,12.27,15.71,18.68,3.42,4.38,7.73,8,9.49,13.77,8.54,27.79,17.32,55.51,26,83.25,5,16,10.15,31.91,15.17,47.88q11.08,35.26,22.07,70.54c.53,1.7,1.38,2.63,3.08,2.6a6.06,6.06,0,0,0,.78-.09C924,684.46,935.69,682.51,947.41,680.47Z" transform="translate(0 0)"/><path class="cls-7" d="M870.07,431.33l1.06.4.29.07h0l-.29-.07Z" transform="translate(0 0)"/><path class="cls-7" d="M1054.55,641.24c-7.83-13.8-15.54-27.67-23.61-41.32-9.75-16.5-18.32-33.7-29.44-49.38s-22-31.2-33.24-46.6c-7.82-10.7-14.2-22.55-23.71-31.88-12.34-12.1-25.29-23.58-38-35.33a5.19,5.19,0,0,0-4-1.66,5.22,5.22,0,0,1,3.83,1.66c12.69,11.75,25.64,23.22,38,35.33,9.51,9.33,15.89,21.18,23.71,31.88,11.26,15.4,22.2,31,33.24,46.6s19.69,32.88,29.44,49.38c8.07,13.65,15.78,27.52,23.61,41.32,2.29,4-.2,12.45-3.62,15.58-8.6,7.86-19.38,9.08-30.11,10.9-24.43,4.15-48.83,8.5-73.25,12.75-11.72,2-23.46,4-35.17,6.1a6.06,6.06,0,0,1-.78.09,5.69,5.69,0,0,0,.94-.09c11.71-2.11,23.44-4.06,35.17-6.1,24.42-4.25,48.81-8.59,73.25-12.75,10.72-1.82,21.51-3,30.11-10.9C1054.35,653.7,1056.84,645.28,1054.55,641.24Z" transform="translate(0 0)"/><path class="cls-7" d="M889.15,437.83a13.46,13.46,0,0,1-1.73-.15l-.3-.09.13.09A13.53,13.53,0,0,0,889.15,437.83Z" transform="translate(0 0)"/><path class="cls-7" d="M863,428.61c1.56.62,3.13,1.21,4.7,1.8l2.42.92,1.06.4.29.07-.12-.07-1.06-.4-2.42-.92c-1.57-.59-3.14-1.18-4.7-1.8q-1.36-.54-2.7-1.1a7,7,0,0,0-2.54-.68,7.46,7.46,0,0,1,2.38.68Q861.61,428.08,863,428.61Z" transform="translate(0 0)"/><path class="cls-8" d="M291.14,409.66a8.76,8.76,0,0,1-4.91-.64,20.33,20.33,0,0,1-2.19-1.08l-1.25-.71a21.87,21.87,0,0,0-3.83-1.88C282.43,408.47,285.72,412.08,291.14,409.66Z" transform="translate(0 0)"/><path class="cls-8" d="M284,407.94a20.33,20.33,0,0,0,2.19,1.08A20.35,20.35,0,0,1,284,407.94Z" transform="translate(0 0)"/><path class="cls-9" d="M302.14,391.74l-4,13C301.88,401.14,301.6,396.31,302.14,391.74Z" transform="translate(0 0)"/><path class="cls-8" d="M277.56,404.65l.19.18,0,.08a1,1,0,0,0,.83.12l-1.35-1.32A5.28,5.28,0,0,0,277.56,404.65Z" transform="translate(0 0)"/><path class="cls-4" d="M294.54,278.88l-.14.41,3.89-4.24C296.37,275.49,295.33,276.49,294.54,278.88Z" transform="translate(0 0)"/><path class="cls-4" d="M222.52,794.49c1.54,2.7,3.19,3.62,6.36,2.92,8.06-1.77,16.2-3.21,24.32-4.68,30.23-5.44,60.47-10.77,90.69-16.28,28.27-5.15,56.49-10.55,84.76-15.7,28.43-5.19,56.9-10.16,85.33-15.32,26.64-4.84,53.24-9.86,79.87-14.72,24.53-4.47,49.09-8.76,73.62-13.26,31.83-5.84,63.64-11.84,95.47-17.69,30.85-5.66,61.7-11.37,92.62-16.64,4.94-.84,4.24-2.37,3-5.81q-17.11-48.37-34-96.82-14.68-41.9-29.33-83.81c-.09-.25-.18-.5-.27-.73a7.42,7.42,0,0,0-1.72-2.26c-3.73-3.32-7.11-7-11-10.15-3.69-2.94-6.36-7.18-11.39-8.47-26.81-6.88-53.56-14-80.4-20.73-2.57-.65-3.79-1.77-4.53-3.83a7.7,7.7,0,0,1-.64-1.52c-2.44-7.85-4.77-15.73-7.32-23.54q-11.67-35.8-23.43-71.57l-352,39a19.42,19.42,0,0,1-3.94,12.34l-2.87,3.63-4.18,1.95c-5.42,2.42-8.72-1.19-12.18-4.3a.43.43,0,0,0-.36-.34c-1.07.23-1.14-.57-1.33-1.24a.82.82,0,0,1-.21-.26c-.26-.23-.51-.47-.75-.71l-.13-.14a18.13,18.13,0,0,1-1.33-1.53,18.55,18.55,0,0,1-1.55-2.33,21.29,21.29,0,0,1-1.09-2.31,23.14,23.14,0,0,1-1-2.34c-4.6-13.24-9.6-26.35-14.11-39.62l0-.07c-.88-1.53-2-1.09-3.63-.5-6.83,2.42-13.68,4.77-20.54,7.09-8.71,2.95-8.71,2.93-12.8-5.26-3.86-7.74-3.86-7.74-12.09-5.81-1.92.45-3.81,1.07-5.74,1.38-4.09.65-5.07,2.24-3.21,6.33,2.63,5.78,1.26,7.77-5,9.29a178.66,178.66,0,0,1-19.58,3.58c-10,1.3-19.73,4.56-29.58,7-18.49,4.51-37.12,8.49-55.41,13.69-9.75,2.77-21,1.85-28.8,10.26-.18.19-.63.18-1,.17-2.78,0-2.27,1.36-1.54,3.17,2.7,6.71,5.28,13.47,7.9,20.21,11.06,28.36,22.19,56.69,33.18,85.08,10.55,27.27,20.88,54.63,31.44,81.9q19.14,49.43,38.55,98.75c3.75,9.49,6.84,19.28,10.9,28.63,1.3,2.92,2.7,5.8,4.25,8.61C197.18,751.1,210,772.69,222.52,794.49Z" transform="translate(0 0)"/><path class="cls-4" d="M645.56,326.09q-11.78-36.32-23.49-72.66c-.07-.22-.15-.43-.23-.64a4.16,4.16,0,0,0-.77-1Z" transform="translate(0 0)"/><path class="cls-4" d="M645.56,326.09l9.15,27.77h-.11q11.69,35.79,23.43,71.57c2.55,7.81,4.88,15.7,7.32,23.54a7.7,7.7,0,0,0,.64,1.52c0-.13-.1-.25-.14-.39-2.44-7.85-4.77-15.73-7.32-23.54-8.86-27.18-17.83-54.31-26.68-81.49q-14.72-45.23-29.27-90.52a10.27,10.27,0,0,0-.72-1.76c.08.21.15.41.23.64Q633.79,289.77,645.56,326.09Z" transform="translate(0 0)"/><path class="cls-4" d="M271.75,395.28a23.14,23.14,0,0,0,1,2.34c-.16-.4-.33-.8-.48-1.22-4.6-13.24-9.6-26.35-14.11-39.62a6.7,6.7,0,0,0-.52-1.2l0,.07C262.15,368.93,267.14,382,271.75,395.28Z" transform="translate(0 0)"/><path class="cls-4" d="M825.1,581.61q-14.68-41.9-29.33-83.81a15,15,0,0,0-.77-1.86c.09.24.18.48.27.73q14.59,41.93,29.33,83.81,17,48.42,34,96.82c1.22,3.45,1.92,5-3,5.81-30.92,5.27-61.77,11-92.62,16.64-31.83,5.84-63.64,11.85-95.47,17.69-24.53,4.5-49.09,8.79-73.62,13.26-26.63,4.86-53.24,9.88-79.87,14.72-28.43,5.17-56.9,10.14-85.33,15.32-28.27,5.16-56.49,10.55-84.76,15.7-30.22,5.51-60.46,10.83-90.69,16.28-8.13,1.46-16.26,2.91-24.32,4.68-3.17.7-4.82-.23-6.36-2.92C210,772.69,197.18,751.1,185,729.14c-1.56-2.81-3-5.68-4.25-8.61,1.44,3.31,3,6.57,4.75,9.73,12.18,22,25,43.55,37.51,65.35,1.54,2.7,3.19,3.62,6.36,2.92,8.06-1.77,16.2-3.21,24.32-4.68,30.23-5.44,60.47-10.77,90.69-16.28,28.27-5.15,56.49-10.55,84.76-15.7,28.43-5.19,56.9-10.16,85.33-15.32,26.64-4.84,53.24-9.86,79.87-14.72,24.53-4.47,49.09-8.76,73.62-13.26,31.83-5.84,63.64-11.84,95.47-17.69,30.85-5.66,61.7-11.37,92.62-16.64,4.94-.84,4.24-2.37,3-5.81Q842,630.06,825.1,581.61Z" transform="translate(0 0)"/><path class="cls-4" d="M277.56,404.65a.82.82,0,0,0,.21.26l0-.08Z" transform="translate(0 0)"/><path class="cls-10" d="M300.05,274.79c11.78-.91,23.62-1.17,35.36-2.78,5-.69,10.17-.41,15.28-.94,11.45-1.2,23.12-.68,34.48-2.34,16.94-2.47,34-2.82,51-4.47,16-1.56,32.16-2.18,48.23-3.36,15-1.1,30-2.4,44.95-3.6a43.53,43.53,0,0,1,5-.3c13.27.46,26.43-1.64,39.6-2.52,14.5-1,29.06-2.09,43.55-3.62a4.21,4.21,0,0,1,3.62.91l-.3-.92,0,0L617,249.74c-14.49,1.52-29.05,2.64-43.55,3.62-12.73.85-25.44,2.84-38.26,2.55l-49.45,3.73-1.81.14-.31,0-92.59,7q-3.16.37-6.32.83c-11.36,1.66-23,1.14-34.48,2.34-2,.21-4,.3-6.07.36l-11.58.87c-11,1.34-22,1.64-33,2.49l-1.27,1.38A12,12,0,0,1,300.05,274.79Z" transform="translate(0 0)"/><path class="cls-10" d="M294.93,362.93c-4.13-15.55-8.47-31-12.45-46.63-1.22-4.78,2-8.9,3.38-13.23,2.49-8,5.88-15.8,8.55-23.79L293,280.82c-2.49,7.06-5.42,14-7.64,21.13-1.34,4.33-4.6,8.46-3.38,13.23,4,15.59,8.33,31.08,12.45,46.63,2.36,8.88,4.6,17.8,6.88,26.7l1.32,4.36C300.07,382.89,297.57,372.89,294.93,362.93Z" transform="translate(0 0)"/><path class="cls-10" d="M299.55,273.67c11-.85,22-1.14,33-2.49Z" transform="translate(0 0)"/><path class="cls-10" d="M384.68,267.6q3.16-.46,6.32-.83l-46.87,3.53c2-.07,4-.15,6.07-.36C361.65,268.75,373.31,269.26,384.68,267.6Z" transform="translate(0 0)"/><path class="cls-10" d="M573.41,253.36c14.5-1,29.06-2.09,43.55-3.62l-81.81,6.17C548,256.19,560.69,254.21,573.41,253.36Z" transform="translate(0 0)"/><path class="cls-10" d="M620.76,250.82h0l0,0Z" transform="translate(0 0)"/><path class="cls-10" d="M282,315.18c-1.22-4.78,2-8.9,3.38-13.23,2.22-7.14,5.14-14.07,7.64-21.13l-1.85,2-12.18,32,22.35,73.67c-2.28-8.9-4.53-17.82-6.88-26.7C290.31,346.26,286,330.76,282,315.18Z" transform="translate(0 0)"/><path class="cls-10" d="M485.71,259.63l-2.12.16.31,0Z" transform="translate(0 0)"/><path class="no-kill-area" d="M644.5,325.09l-24.63-74.32a4.26,4.26,0,0,0-3.64-.91c-14.57,1.52-29.23,2.64-43.81,3.62-13.25.88-26.48,3-39.83,2.52a44.06,44.06,0,0,0-5,.3c-15.07,1.2-30.14,2.5-45.22,3.6-16.17,1.18-32.39,1.81-48.52,3.36-17.08,1.65-34.26,2-51.3,4.47-11.43,1.66-23.17,1.14-34.69,2.34-5.15.54-10.31.25-15.38.94-11.81,1.61-23.71,1.87-35.57,2.78a12.11,12.11,0,0,0-1.77.26l-3.91,4.24c-2.68,8-6.09,15.75-8.6,23.79-.9,2.87-3.6,7.21-3.4,13.23a23.48,23.48,0,0,0,1.84,8.28c3,7.41,9.95,31.48,19.85,68.13l352.67-38.84c-1.09-3.31-2.18-6.61-3.27-9.93Q647.4,334,644.5,325.09Z" transform="translate(0 0)"/><path class="cls-10" d="M645.56,326.09q2.89,8.93,5.79,17.86c1.08,3.31,2.17,6.62,3.25,9.93h.11Z" transform="translate(0 0)"/></svg>