<svg id="svg277" xmlns="http://www.w3.org/2000/svg" viewBox="0 0 1021.05 1014"><defs><style>.cls-1,.cls-5,.cls-6{fill:none;}.cls-2{fill:#008d46;}.cls-3{fill:#fff;}.cls-4{fill:#d2232c;}.cls-5{stroke:#000;stroke-width:14px;}.cls-5,.cls-6{stroke-miterlimit:10;}.cls-6{stroke:#848484;stroke-width:12px;}</style></defs><title>BandieraItalianaIcon</title><path class="cls-1" d="M552.07,6q-9,0-18,.32H570Q561.09,6,552.07,6Z"/><path class="cls-2" d="M11.07,506c0,208.51,127.63,387.2,309,462.22V43.78C138.7,118.8,11.07,297.49,11.07,506Z"/><path class="cls-3" d="M529,6.32H493.09a497.8,497.8,0,0,0-173,37.45V968.22a501.73,501.73,0,0,0,371.95,4V39.77A498,498,0,0,0,529,6.32Z"/><path class="cls-4" d="M692,39.77V972.23c186.69-72.52,319-253.92,319-466.23S878.73,112.28,692,39.77Z"/><ellipse class="cls-5" cx="510.52" cy="507" rx="503.52" ry="500"/><ellipse class="cls-6" cx="510.49" cy="507.51" rx="491.35" ry="487.9"/></svg>