<svg id="svg277" xmlns="http://www.w3.org/2000/svg" viewBox="0 0 1021.05 1014"><defs><style>.cls-1,.cls-10,.cls-11{fill:none;}.cls-2{fill:#ef2e36;}.cls-3{fill:#fffefe;}.cls-4{fill:#322e68;}.cls-5{fill:#ef2f37;}.cls-6{fill:#f06870;}.cls-7{fill:#423b73;}.cls-8{fill:#f8959c;}.cls-9{fill:#7e7da3;}.cls-10{stroke:#848484;stroke-width:12px;}.cls-10,.cls-11{stroke-miterlimit:10;}.cls-11{stroke:#000;stroke-width:14px;}</style></defs><title>BandieraIngleseIcon</title><path class="cls-1" d="M373.89,702.38a2.89,2.89,0,0,0-.53.16h0A2.89,2.89,0,0,1,373.89,702.38Z"/><path class="cls-1" d="M252.89,319.61a1.26,1.26,0,0,0-.74-.25L225.91,299.9l26.25,19.46A1.26,1.26,0,0,1,252.89,319.61Z"/><path class="cls-1" d="M646.3,320.71l2.59.08-2.59-.08Z"/><path class="cls-1" d="M253.41,702.51a1.2,1.2,0,0,0-.63.51l-2.14,1.44,2.14-1.44A1.2,1.2,0,0,1,253.41,702.51Z"/><path class="cls-1" d="M61.31,318.61l-.3-.1c-.67-.55-1.32-1.1-2-1.65.66.55,1.32,1.11,2,1.65Z"/><path class="cls-1" d="M62.41,319.23a.74.74,0,0,1,.22.46A.74.74,0,0,0,62.41,319.23Z"/><path class="cls-1" d="M252.81,321h0c.32.05.5,0,.57-.12C253.31,321,253.13,321,252.81,321Z"/><path class="cls-1" d="M62.06,702.59l-2.07,0,2.07,0Z"/><path class="cls-1" d="M253.27,320.29h0a6.87,6.87,0,0,0-.46.68A6.87,6.87,0,0,1,253.27,320.29Z"/><path class="cls-2" d="M592.42,623.53H987.75a488.49,488.49,0,0,0,2-223.67l-391.91,0c-3.11,0-6.22-.05-9.33,0-1.92,0-2.89-.77-2.77-2.78.07-1.21,0-2.42,0-3.63q0-184.11,0-368.21a500.47,500.47,0,0,0-150.9,0q0,183.12,0,366.25c0,2.25.07,4.49.11,6.74a4.82,4.82,0,0,1,.16.87c0,.08-.25.17-.39.26-3,.94-6.17.47-9.25.47l-394.46,0a488.5,488.5,0,0,0,2,223.68H427.8c8,0,7.06-1.11,7.06,7.22q0,179.39,0,358.79a500.47,500.47,0,0,0,150.9,0q0-179.94,0-359.87C585.76,622.75,585.35,623.53,592.42,623.53Z"/><path class="cls-3" d="M434.76,399.35l.23-1.14c0-2.25-.11-4.49-.11-6.74q0-183.12,0-366.25a491.54,491.54,0,0,0-54.45,11.53q0,116.08,0,232.17v5.64c-2.47.26-3.54-1.31-4.83-2.26q-65.86-48.67-131.67-97.4l-52.35-38.72A492.13,492.13,0,0,0,115,217.72L225.91,299.9l26.25,19.46a1.26,1.26,0,0,1,.74.25,1.13,1.13,0,0,1,.38.68h0c.13.25.18.45.11.57s-.25.17-.57.12h-.3l-.14-.26q-29.56.06-59.12.11c-19.36,0-38.73-.1-58.09.09a15.44,15.44,0,0,1-9.94-3.38L75.35,280.43q-9.27,17.49-17.13,35.79l.8.63c.66.55,1.32,1.11,2,1.65l.3.1a2.84,2.84,0,0,1,1.1.62.74.74,0,0,1,.22.46.69.69,0,0,1,0,.27c-.38,1.07-1.56.6-2.45.39-1.24.05-2.49.12-3.73.16a481.69,481.69,0,0,0-25.36,79.33l394.46,0C428.59,399.81,431.72,400.29,434.76,399.35Z"/><path class="cls-3" d="M637.21,748.51c1.65-.28,2.52,1,3.54,1.78q90.74,67.08,181.44,134.21a492.35,492.35,0,0,0,79.36-81.78L772.95,707c-1.11-.82-2.15-1.74-3.22-2.61-.93-.14-1.72-.71-1.55-1.59.12-.62,1.05-.55,1.7-.28q58.85,0,117.7-.15c2.92,0,4.86,1.36,6.93,2.91L942,740.76q9.08-16.53,16.9-33.8c-1.57-1.1-3.37-2-4.37-3.75a.48.48,0,0,1-.68-.41l.78-.16c2.08,0,4.16-.1,6.24-.11a481.86,481.86,0,0,0,26.87-79H592.42c-7.06,0-6.66-.78-6.66,6.17q0,179.94,0,359.87A491.63,491.63,0,0,0,636.88,979q0-112.15,0-224.29C636.89,752.64,636.55,750.57,637.21,748.51Z"/><path class="cls-3" d="M585.76,397c-.11,2,.85,2.8,2.77,2.78,3.11,0,6.22,0,9.33,0l391.91,0a481.7,481.7,0,0,0-25.34-79.3h-1.18c-2.24,0-4.48-.13-6.72-.2-.65.2-1.68.4-1.82-.18-.29-1.21.85-1.54,1.79-1.84,1.72-1.41,3.46-2.78,5.21-4.15a486.47,486.47,0,0,0-55.82-96.35l-.24.18q-66.7,49.71-133.33,99.5a16.22,16.22,0,0,1-10.45,3.4c-36.8-.12-73.61-.07-110.41-.08-.86,0-1.73,0-2.59,0l-2.59-.08a1,1,0,0,1-.4.22c-.34.08-.51-.24-.54-.65,0-.59.42-.81,1-.84l211.54-157Q843.32,148,827.58,134.74L643.37,271l-5.57,4.12c-1.49-1.87-.89-3.81-.89-5.56q-.06-69,0-138,0-47.9,0-95.8A491.64,491.64,0,0,0,585.77,25.2q0,184.11,0,368.21C585.76,394.62,585.83,395.83,585.76,397Z"/><path class="cls-3" d="M427.8,623.54H33.07a481.85,481.85,0,0,0,26.88,79h0l2.07,0,.16-.06c.37-.12.72-.13.82.37,0,.16-.34.4-.52.6l-1.58,1.22a486.81,486.81,0,0,0,57.93,97.43l129.66-96.23c.69-.51,1.4-1,2.11-1.48l2.14-1.44a1.2,1.2,0,0,1,.63-.51,1.17,1.17,0,0,1,.81.08c9.32,0,18.65-.13,28-.13q45.59,0,91.18.08a2.89,2.89,0,0,1,.53-.16c.55-.11,1.11,0,1.22.45.2.93-.62,1.47-1.56,1.62q-27.42,20.45-54.85,40.89-75.38,55.95-150.79,111.87,14,13.49,29,25.86l179.74-133c.94-.69,1.72-1.72,3.42-1.72.73,1.69.33,3.59.33,5.39q0,112.12,0,224.25a491.54,491.54,0,0,0,54.45,11.53q0-179.39,0-358.79C434.87,622.43,435.83,623.54,427.8,623.54Z"/><path class="cls-4" d="M380.06,748.38c-1.7,0-2.48,1-3.42,1.72l-179.74,133a491.2,491.2,0,0,0,183.52,95q0-112.12,0-224.25C380.39,752,380.79,750.07,380.06,748.38Z"/><path class="cls-4" d="M640.75,750.29c-1-.76-1.89-2.05-3.54-1.78-.66,2.06-.31,4.13-.31,6.16q0,112.15,0,224.29a491.14,491.14,0,0,0,185.31-94.47Q731.48,817.38,640.75,750.29Z"/><path class="cls-4" d="M375.58,272.29c1.29,1,2.36,2.52,4.83,2.26v-5.64q0-116.08,0-232.17a491.27,491.27,0,0,0-188.86,99.42l52.35,38.72Q309.74,223.6,375.58,272.29Z"/><path class="cls-4" d="M636.91,269.57c0,1.74-.6,3.69.89,5.56l5.57-4.12L827.58,134.74A491.22,491.22,0,0,0,636.88,35.81q0,47.9,0,95.8Q636.87,200.59,636.91,269.57Z"/><path class="cls-5" d="M373.55,704.45l-.19-1.91h0q-45.59,0-91.18-.08c-9.32,0-18.65.08-28,.13a1.33,1.33,0,0,1-1.44.43l-2.14,1.44c-.71.48-1.42,1-2.11,1.48L118.86,802.17a491.78,491.78,0,0,0,49.05,55q75.4-55.93,150.79-111.87Q346.17,725,373.55,704.45Z"/><path class="cls-5" d="M646.3,320.71l2.59.08c.86,0,1.73,0,2.59,0,36.8,0,73.61,0,110.41.08a16.22,16.22,0,0,0,10.45-3.4q66.59-49.85,133.33-99.5l.24-.18a491.55,491.55,0,0,0-48-55.42l-211.54,157Z"/><path class="cls-5" d="M887.58,702.39q-58.85.19-117.7.15l-.15,1.87c1.07.87,2.11,1.78,3.22,2.61l128.6,95.69A488.09,488.09,0,0,0,942,740.76L894.52,705.3C892.45,703.75,890.5,702.38,887.58,702.39Z"/><path class="cls-5" d="M135.17,320.92c19.36-.18,38.72-.07,58.09-.09q29.56,0,59.12-.11l-.22-1.36L225.91,299.9,115,217.72a487.64,487.64,0,0,0-39.65,62.71l49.88,37.11A15.44,15.44,0,0,0,135.17,320.92Z"/><path class="cls-4" d="M954.79,703l-.26.25c1,1.79,2.8,2.65,4.37,3.75q1-2.21,2-4.43c-2.08,0-4.16.07-6.24.11Z"/><path class="cls-4" d="M956.54,320.36c2.24.07,4.48.2,6.72.2h1.18q-1.34-3.2-2.72-6.37c-1.75,1.37-3.49,2.74-5.21,4.15Z"/><path class="cls-4" d="M62.06,702.59l-2.07,0h0c.32.73.65,1.46,1,2.19l1.58-1.22Z"/><path class="cls-4" d="M61,318.51c-.67-.55-1.32-1.1-2-1.65l-.8-.63q-.92,2.14-1.82,4.29c1.24,0,2.49-.11,3.73-.16Z"/><path class="cls-6" d="M435.16,399.08a4.82,4.82,0,0,0-.16-.87l-.23,1.14C434.9,399.26,435.16,399.17,435.16,399.08Z"/><path class="cls-7" d="M60.13,320.35c.89.21,2.06.68,2.45-.39a.69.69,0,0,0,0-.27.74.74,0,0,0-.22-.46,2.84,2.84,0,0,0-1.1-.62l-.3-.1Z"/><path class="cls-8" d="M253.38,320.87c.07-.12,0-.32-.11-.57h0a6.87,6.87,0,0,0-.46.68C253.13,321,253.31,321,253.38,320.87Z"/><path class="cls-8" d="M252.38,320.72l.14.26h.3a6.87,6.87,0,0,1,.46-.68,1.13,1.13,0,0,0-.38-.68,1.26,1.26,0,0,0-.74-.25Z"/><path class="cls-6" d="M768.18,702.82c-.16.88.62,1.45,1.55,1.59l.15-1.87C769.24,702.27,768.3,702.2,768.18,702.82Z"/><path class="cls-9" d="M954.64,702.64l-.78.16a.48.48,0,0,0,.68.41l.26-.25Z"/><path class="cls-7" d="M954.72,320.17c.14.58,1.16.38,1.82.18l0-2C955.57,318.63,954.44,319,954.72,320.17Z"/><path class="cls-8" d="M646.33,319.44c-.55,0-1,.25-1,.84,0,.41.2.73.54.65a1,1,0,0,0,.4-.22h0Z"/><path class="cls-6" d="M373.55,704.45c.94-.15,1.76-.7,1.56-1.62-.1-.48-.66-.55-1.22-.45a2.89,2.89,0,0,0-.53.16Z"/><path class="cls-9" d="M62.51,703.51c.18-.2.55-.44.52-.6-.1-.51-.45-.49-.82-.37l-.16.06h0Z"/><path class="cls-6" d="M252.78,703a1.33,1.33,0,0,0,1.44-.43,1.17,1.17,0,0,0-.81-.08A1.2,1.2,0,0,0,252.78,703Z"/><ellipse class="cls-10" cx="510.72" cy="507.87" rx="491.35" ry="487.9"/><ellipse class="cls-11" cx="510.52" cy="507" rx="503.52" ry="500"/></svg>